<svg xmlns="http://www.w3.org/2000/svg" width="16" height="16" xml:space="preserve" fill-rule="evenodd" stroke-linejoin="round" stroke-miterlimit="2" clip-rule="evenodd" viewBox="0 0 20 20"><path fill="#ffda73" d="M17.645 8.032c-.294-.307-.599-.625-.714-.903-.106-.256-.112-.679-.118-1.089-.012-.762-.025-1.626-.626-2.227s-1.465-.614-2.227-.625c-.41-.007-.833-.013-1.089-.119-.278-.115-.596-.42-.903-.714-.54-.518-1.152-1.105-1.968-1.105-.816 0-1.428.587-1.968 1.105-.307.294-.625.599-.903.714-.256.106-.679.112-1.089.119-.762.011-1.626.024-2.227.625s-.614 1.465-.625 2.227c-.007.41-.013.833-.119 1.089-.115.278-.42.596-.714.903C1.837 8.572 1.25 9.184 1.25 10c0 .816.587 1.428 1.105 1.968.294.307.599.625.714.903.106.256.112.679.119 1.089.011.762.024 1.626.625 2.227s1.465.614 2.227.626c.41.006.833.012 1.089.118.278.115.596.42.903.714.54.518 1.152 1.105 1.968 1.105.816 0 1.428-.587 1.968-1.105.307-.294.625-.599.903-.714.256-.106.679-.112 1.089-.118.762-.012 1.626-.025 2.227-.626s.614-1.465.626-2.227c.006-.41.012-.833.118-1.089.115-.278.42-.596.714-.903.518-.54 1.105-1.152 1.105-1.968 0-.816-.587-1.428-1.105-1.968ZM10 15a.942.942 0 0 1-.937-.937c0-.515.423-.938.937-.938s.938.423.938.938A.942.942 0 0 1 10 15Zm.625-3.82v.07a.628.628 0 0 1-.625.625.628.628 0 0 1-.625-.625v-.625c0-.342.282-.625.625-.625a1.57 1.57 0 0 0 1.562-1.562A1.57 1.57 0 0 0 10 6.875c-.857 0-1.563.706-1.563 1.563a.628.628 0 0 1-.625.625.628.628 0 0 1-.625-.625A2.826 2.826 0 0 1 10 5.626a2.825 2.825 0 0 1 2.812 2.812 2.82 2.82 0 0 1-2.187 2.742Z"></path></svg>